<svg width="17" height="21" viewBox="0 0 17 21" fill="none" xmlns="http://www.w3.org/2000/svg">
<path d="M5.73664 20.5319C2.76004 20.5147 0.297852 14.4385 0.297852 11.344C0.297852 6.28912 4.08984 5.18248 5.55125 5.18248C6.20984 5.18248 6.91309 5.44111 7.53336 5.66998C7.96711 5.82963 8.4157 5.99443 8.6652 5.99443C8.81453 5.99443 9.16644 5.85424 9.47715 5.73123C10.1398 5.46744 10.9643 5.13959 11.9245 5.13959C11.9262 5.13959 11.9285 5.13959 11.9302 5.13959C12.6471 5.13959 14.8209 5.29693 16.1279 7.25959L16.434 7.71963L15.9934 8.05209C15.364 8.52701 14.2155 9.39334 14.2155 11.1094C14.2155 13.1419 15.5162 13.9235 16.141 14.2994C16.4168 14.4654 16.7023 14.6365 16.7023 15.0107C16.7023 15.255 14.7523 20.5015 11.9204 20.5015C11.2275 20.5015 10.7377 20.2933 10.3057 20.1096C9.86852 19.9236 9.49141 19.7634 8.86828 19.7634C8.55242 19.7634 8.15301 19.9128 7.73016 20.0713C7.1523 20.2869 6.49824 20.5319 5.75609 20.5319H5.73664Z" fill="#E8E8E8"/>
<path d="M12.2242 0.531921C12.2979 3.19114 10.3962 5.03598 8.49663 4.92028C8.18362 2.79813 10.3959 0.531921 12.2242 0.531921Z" fill="#E8E8E8"/>
</svg>
