<?xml version="1.0" encoding="iso-8859-1"?>
<!-- Uploaded to: SVG Repo, www.svgrepo.com, Generator: SVG Repo Mixer Tools -->
<svg height="800px" width="800px" version="1.1" id="Layer_1" xmlns="http://www.w3.org/2000/svg" xmlns:xlink="http://www.w3.org/1999/xlink" 
	 viewBox="0 0 392.598 392.598" xml:space="preserve">
<g>
	<path style="fill:#56ACE0;" d="M257.39,172.606c-6.465,0.905-13.123,1.745-19.911,2.392c-0.776,31.16-1.164,136.533,24.436,195.749
		h71.434c-2.133-71.628-25.406-136.986-63.224-176.485C264.242,187.927,259.976,180.558,257.39,172.606z"/>
	<path style="fill:#56ACE0;" d="M124.606,108.024c0,5.107,2.133,11.895,6.335,19.653c3.943,7.434,6.206,15.321,6.723,23.273
		c36.525,5.301,80.549,5.301,117.139,0c0.646-8.145,2.844-16.226,6.853-23.79c5.172-9.632,6.271-15.774,6.271-19.135
		c0-18.747-15.321-34.069-34.069-34.069c-11.507,0-22.174,5.818-28.509,15.451c-4.848,7.24-14.352,6.012-18.23,0
		c-6.335-9.632-17.002-15.451-28.509-15.451C139.863,73.956,124.606,89.212,124.606,108.024z"/>
</g>
<path style="fill:#FFC10D;" d="M215.628,176.549c-6.4,0.259-12.8,0.388-19.329,0.388s-12.929-0.129-19.329-0.388
	c0.776,33.358,0.776,130.844-22.82,194.198h84.234C214.853,307.394,214.788,209.842,215.628,176.549z"/>
<path style="fill:#56ACE0;" d="M155.119,174.998c-6.788-0.646-13.446-1.487-19.911-2.392c-2.521,7.952-6.788,15.386-12.8,21.721
	c-37.754,39.499-61.026,104.857-63.16,176.42h71.499C156.283,311.531,155.895,206.158,155.119,174.998z"/>
<path style="fill:#194F82;" d="M285.964,179.2c-10.537-10.99-12.541-27.733-5.042-41.632c5.947-11.119,8.857-20.816,8.857-29.414
	c0-24.372-15.58-44.994-37.301-52.622V10.925C252.477,4.913,247.628,0,241.552,0c-6.077,0-10.925,4.848-10.925,10.925v41.438
	c-12.929,0.776-24.954,5.883-34.392,14.481c-9.374-8.598-21.463-13.705-34.392-14.481V10.925C161.842,4.913,156.994,0,150.917,0
	s-10.925,4.848-10.925,10.925v44.477c-21.721,7.628-37.301,28.38-37.301,52.622c0,8.857,2.909,18.683,8.857,29.931
	c7.37,13.77,5.236,30.384-5.172,41.309c-43.313,45.511-69.172,121.147-69.172,202.408c0,6.012,4.848,10.925,10.925,10.925h296.339
	c6.012,0,10.925-4.848,10.925-10.925C355.329,300.347,329.471,224.646,285.964,179.2z M261.915,370.747
	c-25.6-59.216-25.083-164.59-24.436-195.749c6.788-0.646,13.446-1.487,19.911-2.392c2.521,7.887,6.788,15.321,12.8,21.527
	c37.818,39.499,61.026,104.921,63.224,176.485h-71.499V370.747z M154.214,370.747c23.596-63.354,23.596-160.776,22.82-194.198
	c6.4,0.259,12.8,0.388,19.329,0.388s12.929-0.129,19.329-0.388c-0.776,33.358-0.776,130.844,22.82,194.198H154.214z M59.248,370.747
	c2.133-71.564,25.406-136.921,63.16-176.42c6.012-6.271,10.279-13.77,12.8-21.721c6.465,0.905,13.123,1.745,19.911,2.392
	c0.776,31.16,1.164,136.533-24.436,195.749H59.248z M187.184,89.406c3.943,6.012,13.382,7.24,18.23,0
	c6.335-9.632,17.002-15.451,28.509-15.451c18.747,0,34.069,15.321,34.069,34.069c0,3.426-1.099,9.503-6.271,19.135
	c-4.073,7.564-6.335,15.709-6.853,23.79c-36.525,5.301-80.549,5.301-117.139,0c-0.646-7.952-2.78-15.838-6.723-23.273
	c-4.202-7.758-6.335-14.545-6.335-19.653c0-18.747,15.321-34.069,34.069-34.069C170.182,73.956,180.848,79.709,187.184,89.406z"/>
</svg>