<?xml version="1.0" encoding="iso-8859-1"?>
<!-- Uploaded to: SVG Repo, www.svgrepo.com, Generator: SVG Repo Mixer Tools -->
<svg height="800px" width="800px" version="1.1" id="Layer_1" xmlns="http://www.w3.org/2000/svg" xmlns:xlink="http://www.w3.org/1999/xlink" 
	 viewBox="0 0 392.663 392.663" xml:space="preserve">
<path style="fill:#FFFFFF;" d="M251.766,189.996c-17.131-15.515-20.816-40.792-8.727-60.057c6.723-10.667,7.758-16.549,7.758-19.135
	c0-13.576-11.055-24.63-24.63-24.63c-8.339,0-15.968,4.202-20.622,11.184c-3.556,6.723-14.998,6.465-18.23,0
	c-4.59-7.046-12.283-11.184-20.622-11.184c-13.576,0-24.63,11.055-24.63,24.63c0,3.297,1.293,9.374,7.628,19.459
	c11.96,19.135,8.275,44.347-8.727,59.798c-39.499,35.749-64.646,104.404-66.844,180.752h244.751
	C316.541,294.4,291.265,225.745,251.766,189.996z"/>
<path style="fill:#194F82;" d="M266.376,173.834c-9.244-8.404-11.378-21.915-4.848-32.194c7.434-11.83,11.055-21.85,11.055-30.772
	c0-19.459-12.024-36.137-29.026-43.055V10.925c0-6.012-4.913-10.925-10.99-10.925S221.64,4.848,221.64,10.925v53.657
	c-9.374,0.905-18.166,4.59-25.277,10.537c-7.111-5.947-15.903-9.632-25.277-10.537V10.925C171.087,4.913,166.238,0,160.162,0
	c-6.012,0-10.99,4.848-10.99,10.925v56.824c-17.002,6.853-29.026,23.596-29.026,43.055c0,9.051,3.556,19.135,10.99,30.966
	c6.4,10.214,4.331,23.725-4.913,32.129c-45.77,41.503-74.214,121.083-74.214,207.838c0,6.012,4.848,10.925,10.925,10.925h266.796
	c6.012,0,10.925-4.848,10.925-10.925C340.719,294.917,312.21,215.273,266.376,173.834z M74.052,370.812
	c2.133-76.347,27.345-144.937,66.844-180.752c17.067-15.451,20.687-40.663,8.727-59.798c-6.335-10.15-7.628-16.162-7.628-19.459
	c0-13.576,11.055-24.63,24.63-24.63c8.339,0,16.097,4.202,20.622,11.184c3.232,6.465,14.675,6.723,18.23,0
	c4.59-7.046,12.283-11.184,20.622-11.184c13.576,0,24.63,11.055,24.63,24.63c0,2.651-1.034,8.469-7.758,19.135
	c-12.154,19.265-8.404,44.541,8.727,60.057C291.2,225.745,316.477,294.4,318.61,370.812H74.052z"/>
<g>
	<path style="fill:#FFC10D;" d="M97.196,349.026L97.196,349.026L97.196,349.026z"/>
	<path style="fill:#FFC10D;" d="M237.22,206.158c-25.018-22.626-30.319-59.604-12.541-87.79c2.78-4.461,3.879-7.111,4.267-8.275
		c-0.323-1.228-1.487-2.133-2.78-2.133c-1.293,0-2.069,0.84-2.392,1.293l0,0c-12.929,19.717-41.762,19.717-54.691,0l0,0
		c-0.323-0.453-1.099-1.293-2.392-1.293c-1.422,0-2.457,0.905-2.78,2.263c0.323,1.099,1.293,3.814,4.267,8.469
		c17.648,28.186,12.283,64.97-12.606,87.531c-30.901,28.057-52.558,82.036-58.311,142.804h198.465
		C289.842,288.129,268.25,234.214,237.22,206.158z"/>
</g>
</svg>