<?xml version="1.0" encoding="iso-8859-1"?>
<!-- Uploaded to: SVG Repo, www.svgrepo.com, Generator: SVG Repo Mixer Tools -->
<svg version="1.1" id="Layer_1" xmlns="http://www.w3.org/2000/svg" xmlns:xlink="http://www.w3.org/1999/xlink" 
	 viewBox="0 0 512.004 512.004" xml:space="preserve">
<polygon style="fill:#8811A4;" points="184.934,89.452 153.107,57.625 81.494,81.495 57.624,153.107 89.451,184.935 
	161.064,161.064 "/>
<path style="fill:#B34FCC;" d="M134.454,44.433L48.298,3.287C35.751-2.703,20.274-0.508,9.883,9.884
	C-0.508,20.274-2.702,35.753,3.287,48.298l41.146,86.157c3.219,6.744,7.607,13.068,13.192,18.653l95.483-95.483
	C147.522,52.04,141.198,47.651,134.454,44.433z"/>
<rect x="69.461" y="233.21" transform="matrix(0.7071 0.7071 -0.7071 0.7071 300.7275 -124.5683)" style="fill:#FAB352;" width="462.54" height="135.032"/>
<polygon style="fill:#C41216;" points="358.893,57.625 327.065,89.452 350.936,161.064 422.548,184.935 454.375,153.107 
	422.548,89.452 "/>
<path style="fill:#F92629;" d="M467.567,134.455l41.146-86.157c5.989-12.547,3.796-28.024-6.596-38.415
	c-10.391-10.391-25.869-12.585-38.415-6.596l-86.157,41.146c-6.744,3.219-13.068,7.607-18.653,13.192l95.483,95.483
	C459.96,147.523,464.349,141.199,467.567,134.455z"/>
<g>
	
		<rect x="-19.995" y="233.215" transform="matrix(-0.7071 0.7071 -0.7071 -0.7071 573.3171 363.9863)" style="fill:#FCD197;" width="462.54" height="135.032"/>
	<circle style="fill:#FCD197;" cx="416.52" cy="392.642" r="8.44"/>
</g>
<g>
	<circle style="fill:#FAB352;" cx="95.479" cy="392.642" r="8.44"/>
	<circle style="fill:#FAB352;" cx="95.479" cy="440.388" r="8.44"/>
</g>
</svg>