<?xml version="1.0" encoding="iso-8859-1"?>
<!-- Uploaded to: SVG Repo, www.svgrepo.com, Generator: SVG Repo Mixer Tools -->
<svg version="1.1" id="Layer_1" xmlns="http://www.w3.org/2000/svg" xmlns:xlink="http://www.w3.org/1999/xlink" 
	 viewBox="0 0 512 512" xml:space="preserve">
<path style="fill:#79CAE8;" d="M234.308,192.261h-88.463c-2.531,0-4.723-1.812-5.137-4.308
	c-2.053-12.379-12.806-21.814-25.769-21.814s-23.716,9.435-25.769,21.814c-0.414,2.497-2.606,4.308-5.138,4.308H7.837V411.69
	h226.471h141.605h128.251V192.261H375.912"/>
<path style="fill:#CAF9F4;" d="M195.396,100.31v29.257H7.837v62.694h76.196c2.531,0,4.723-1.811,5.137-4.308
	c2.054-12.377,12.809-21.814,25.769-21.814s23.715,9.438,25.769,21.814c0.415,2.497,2.606,4.308,5.137,4.308h358.318V100.31H195.396
	z"/>
<g>
	<path style="fill:#FFFFFF;" d="M195.396,301.975c0-8.257,0.918-16.297,2.647-24.033h-12.536c-11.85,0-21.458,9.608-21.458,21.459
		l0,0c0,11.851,9.608,21.459,21.459,21.459h11.513C195.956,314.725,195.396,308.416,195.396,301.975z"/>
	<circle style="fill:#FFFFFF;" cx="305.11" cy="301.975" r="109.714"/>
</g>
<circle style="fill:#4B92B9;" cx="305.11" cy="301.975" r="78.367"/>
<g>
	<circle style="fill:#FFFFFF;" cx="305.11" cy="301.975" r="41.796"/>
	<path style="fill:#FFFFFF;" d="M68.441,129.567H26.645v-24.033c0-2.885,2.34-5.224,5.224-5.224h31.347
		c2.885,0,5.224,2.34,5.224,5.224V129.567z"/>
	<path style="fill:#FFFFFF;" d="M169.796,129.567H94.563v-17.763c0-2.885,2.34-5.224,5.224-5.224h64.784
		c2.885,0,5.224,2.34,5.224,5.224V129.567z"/>
</g>
<rect x="224.653" y="127.77" style="fill:#79CAE8;" width="45.49" height="37.024"/>
<circle style="fill:#FFFFFF;" cx="247.4" cy="146.286" r="6.792"/>
<circle style="fill:#FF503D;" cx="338.599" cy="146.286" r="24.506"/>
<rect x="399.611" y="123.82" style="fill:#79CAE8;" width="80.457" height="44.931"/>
<path d="M305.11,215.771c-47.533,0-86.204,38.671-86.204,86.204s38.671,86.204,86.204,86.204s86.204-38.671,86.204-86.204
	S352.644,215.771,305.11,215.771z M305.11,372.506c-38.891,0-70.531-31.639-70.531-70.531s31.64-70.531,70.531-70.531
	s70.531,31.639,70.531,70.531S344.001,372.506,305.11,372.506z"/>
<path d="M305.11,252.343c-27.367,0-49.633,22.265-49.633,49.633s22.266,49.633,49.633,49.633c27.367,0,49.633-22.265,49.633-49.633
	S332.477,252.343,305.11,252.343z M305.11,335.935c-18.725,0-33.959-15.234-33.959-33.959s15.235-33.959,33.959-33.959
	s33.959,15.234,33.959,33.959S323.835,335.935,305.11,335.935z"/>
<path d="M187.559,92.473v29.257h-9.927v-9.927c0-7.202-5.859-13.061-13.061-13.061H99.788c-7.202,0-13.061,5.859-13.061,13.061
	v9.927H76.278v-16.196c0-7.202-5.859-13.061-13.061-13.061H31.869c-7.202,0-13.061,5.859-13.061,13.061v16.196H0v297.796h512V92.473
	H187.559z M102.4,114.416h59.559v7.314H102.4V114.416z M34.482,108.147h26.122v13.584H34.482V108.147z M375.912,184.424v15.673
	h120.414v203.755H363.706c35.209-20.33,58.955-58.382,58.955-101.878c0-64.818-52.733-117.551-117.551-117.551
	c-53.777,0-99.232,36.299-113.158,85.682h-6.441c-7.819,0-15.176,3.043-20.732,8.583c-5.524,5.54-8.567,12.897-8.567,20.716
	c0,16.15,13.144,29.288,29.299,29.288h5.113c7.48,32.063,28.119,59.125,55.891,75.159H15.673V200.098h68.359
	c6.413,0,11.824-4.568,12.868-10.863c1.466-8.842,9.053-15.26,18.038-15.26s16.571,6.418,18.038,15.26
	c1.045,6.294,6.456,10.863,12.868,10.863h88.463v-15.673H147.99c-3.583-15.268-17.136-26.122-33.051-26.122
	s-29.468,10.855-33.051,26.122H15.673v-47.02h187.559v-29.257h293.094v76.278L375.912,184.424L375.912,184.424z M305.11,403.853
	c-56.176,0-101.878-45.702-101.878-101.878s45.702-101.878,101.878-101.878S406.988,245.8,406.988,301.975
	S361.286,403.853,305.11,403.853z M188.082,313.02h-2.57c-7.513,0-13.625-6.107-13.625-13.615c0-3.64,1.418-7.068,3.977-9.633
	c2.582-2.575,6.008-3.993,9.649-3.993h3.169c-0.734,5.297-1.121,10.701-1.121,16.196
	C187.559,305.701,187.741,309.383,188.082,313.02z"/>
<path d="M216.816,172.635h61.163v-52.697h-61.163V172.635z M232.49,135.61h29.816v21.35H232.49V135.61z"/>
<path d="M338.594,113.943c-17.833,0-32.343,14.509-32.343,32.343s14.508,32.343,32.343,32.343c17.833,0,32.343-14.508,32.343-32.343
	S356.428,113.943,338.594,113.943z M338.594,162.955c-9.191,0-16.669-7.477-16.669-16.669c0-9.192,7.477-16.669,16.669-16.669
	c9.191,0,16.669,7.478,16.669,16.669C355.263,155.477,347.786,162.955,338.594,162.955z"/>
<path d="M391.771,115.984v60.604h96.131v-60.604H391.771z M472.228,160.914h-64.784v-29.257h64.784V160.914z"/>
<rect x="426.778" y="138.449" style="fill:#FFFFFF;" width="26.122" height="15.673"/>
</svg>