<?xml version="1.0" encoding="iso-8859-1"?>
<!-- Uploaded to: SVG Repo, www.svgrepo.com, Generator: SVG Repo Mixer Tools -->
<svg version="1.1" id="Layer_1" xmlns="http://www.w3.org/2000/svg" xmlns:xlink="http://www.w3.org/1999/xlink" 
	 viewBox="0 0 512 512" xml:space="preserve">
<path style="fill:#69351D;" d="M55.739,436.116H23.451c0-28.616-3.269-49.768-6.429-70.222c-2.691-17.42-5.235-33.873-5.235-52.464
	c0-39.347,11.509-95.357,11.999-97.722l31.617,6.548c-0.114,0.548-11.329,55.16-11.329,91.174c0,16.112,2.251,30.673,4.856,47.534
	C52.123,381.614,55.739,405.019,55.739,436.116z"/>
<path style="fill:#542C19;" d="M456.261,436.116h32.288c0-28.616,3.269-49.768,6.429-70.222c2.691-17.42,5.235-33.873,5.235-52.464
	c0-39.347-11.509-95.357-11.999-97.722l-31.617,6.548c0.113,0.548,11.329,55.16,11.329,91.174c0,16.112-2.251,30.673-4.856,47.534
	C459.877,381.614,456.261,405.019,456.261,436.116z"/>
<path style="fill:#954927;" d="M491.878,235.679H20.122v-74.523h471.757V235.679z"/>
<path style="fill:#783C21;" d="M491.878,235.679H256.9v-74.523h234.978V235.679z"/>
<path style="fill:#E58FBE;" d="M491.878,193.445H20.122v-75.219c0-39.192,31.885-71.078,71.078-71.078
	c22.105,0,41.887,10.144,54.934,26.022c13.046-15.878,32.827-26.022,54.933-26.022S242.953,57.293,256,73.169
	c13.047-15.878,32.828-26.022,54.934-26.022c22.105,0,41.887,10.144,54.933,26.022c13.047-15.878,32.828-26.022,54.934-26.022
	c39.193,0,71.078,31.885,71.078,71.078v75.219H491.878z"/>
<path style="fill:#CE81AB;" d="M491.878,193.445H256c0,0,0-103.664,0-120.275c13.047-15.878,32.828-26.022,54.934-26.022
	c22.105,0,41.887,10.144,54.933,26.022c13.047-15.878,32.828-26.022,54.934-26.022c39.193,0,71.078,31.885,71.078,71.078v75.219
	H491.878z"/>
<circle style="fill:#69351D;" cx="27.871" cy="436.982" r="27.871"/>
<circle style="fill:#542C19;" cx="484.129" cy="436.982" r="27.871"/>
<rect x="20.124" y="156.695" style="fill:#CE81AB;" width="471.752" height="36.753"/>
<rect x="256" y="156.695" style="fill:#B87398;" width="235.876" height="36.753"/>
</svg>