<?xml version="1.0" encoding="iso-8859-1"?>
<!-- Uploaded to: SVG Repo, www.svgrepo.com, Generator: SVG Repo Mixer Tools -->
<svg fill="#000000" height="800px" width="800px" version="1.1" id="Layer_1" xmlns="http://www.w3.org/2000/svg" xmlns:xlink="http://www.w3.org/1999/xlink" 
	 viewBox="0 0 512 512" xml:space="preserve">
<g>
	<g>
		<path d="M395.242,230.948c-23.26-30.512-50.792-53.797-79.175-67.843c2.355-5.106,6.687-10.173,12.694-16.938
			c11.187-12.6,25.111-28.28,25.111-53.748c0-20.606-9.631-38.994-24.616-50.936V0h-33.391v27.69
			c-2.339-0.256-4.712-0.396-7.118-0.396c-11.62,0-22.882,3.076-32.748,8.826c-9.866-5.75-21.128-8.826-32.748-8.826
			c-2.405,0-4.778,0.141-7.118,0.396V0h-33.391v41.481c-14.985,11.942-24.616,30.33-24.616,50.936
			c0,25.468,13.923,41.148,25.111,53.748c6.007,6.765,10.34,11.833,12.694,16.938c-28.384,14.047-55.916,37.331-79.175,67.843
			C73.352,287.881,49.45,363.159,49.45,442.915v7.589l5.718,4.99c1.657,1.447,35.829,30.746,81.18,30.743
			c4.81,0,9.748-0.336,14.785-1.064C164.594,494.839,196.829,512,255.999,512c59.169,0,91.405-17.16,104.869-26.826
			c5.036,0.728,9.973,1.064,14.785,1.064c45.345,0,79.521-29.298,81.18-30.743l5.718-4.99v-7.589
			C462.549,363.161,438.647,287.882,395.242,230.948z M191.517,92.417c0-17.498,14.236-31.733,31.733-31.733
			c7.967,0,15.586,2.968,21.454,8.358l11.295,10.376l11.294-10.375c5.867-5.389,13.487-8.358,21.454-8.358
			c17.498,0,31.733,14.236,31.733,31.733c0,12.166-6.341,19.925-16.689,31.577c-6.694,7.54-14.446,16.278-19.069,27.509
			c-9.665-2.37-19.283-3.614-28.724-3.614c-9.441,0-19.061,1.244-28.724,3.614c-4.621-11.232-12.374-19.97-19.068-27.51
			C197.86,112.342,191.517,104.583,191.517,92.417z M371.813,452.715c-6.944-69.925-24.247-98.522-39.62-123.92l-28.566,17.29
			c14.439,23.857,29.35,48.49,35.309,113.565c-3.246,2.074-7.945,4.688-14.251,7.292c-12.893,5.323-35.277,11.667-68.685,11.667
			s-55.791-6.344-68.685-11.667c-6.306-2.603-11.006-5.218-14.251-7.292c5.959-65.075,20.87-89.709,35.309-113.565l-28.566-17.29
			c-15.372,25.397-32.676,53.995-39.62,123.92c-25.25,1.311-47.213-11.185-57.253-18.054
			c1.566-69.388,22.865-134.262,60.378-183.469c32.874-43.123,76.053-69.91,112.688-69.91s79.814,26.788,112.688,69.91
			c37.51,49.204,58.809,114.082,60.378,183.466C418.998,441.544,397.046,454.025,371.813,452.715z"/>
	</g>
</g>
</svg>