<?xml version="1.0" encoding="iso-8859-1"?>
<!-- Uploaded to: SVG Repo, www.svgrepo.com, Generator: SVG Repo Mixer Tools -->
<svg fill="#000000" height="800px" width="800px" version="1.1" id="Layer_1" xmlns="http://www.w3.org/2000/svg" xmlns:xlink="http://www.w3.org/1999/xlink" 
	 viewBox="0 0 512 512" xml:space="preserve">
<g>
	<g>
		<path d="M496.066,345.082C506.633,316.708,512,286.854,512,256C512,114.509,397.502,0,256,0C114.509,0,0,114.498,0,256
			c0,30.854,5.367,60.708,15.935,89.081C7.07,345.482,0,352.775,0,361.739v33.391C0,459.572,52.428,512,116.87,512H395.13
			C459.572,512,512,459.572,512,395.13v-33.391C512,352.776,504.93,345.482,496.066,345.082z M478.609,395.13
			c0,46.03-37.448,83.478-83.478,83.478H116.87c-46.03,0-83.478-37.448-83.478-83.478v-16.696h83.478
			c27.49,0,50.087,22.368,50.087,50.087c0,9.22,7.475,16.696,16.696,16.696h144.696c9.22,0,16.696-7.475,16.696-16.696
			c0-27.647,22.524-50.087,50.087-50.087c11.344,0,71.796,0,83.478,0V395.13z M100.174,256c0-85.922,69.904-155.826,155.826-155.826
			S411.826,170.077,411.826,256c0,32.589-9.876,63.521-28.625,89.907c-34.896,5.016-62.895,31.687-69.871,65.919H198.67
			c-6.978-34.232-34.975-60.902-69.871-65.919C110.05,319.52,100.174,288.589,100.174,256z M460.072,345.043H422.97
			c14.623-27.218,22.247-57.491,22.247-89.043c0-104.334-84.883-189.217-189.217-189.217S66.783,151.666,66.783,256
			c0,31.553,7.624,61.825,22.249,89.043H51.929C39.637,316.977,33.391,287.076,33.391,256c0-122.746,99.862-222.609,222.609-222.609
			S478.609,133.254,478.609,256C478.609,287.076,472.363,316.977,460.072,345.043z"/>
	</g>
</g>
<g>
	<g>
		<path d="M294.2,150.544c-6.519-6.52-17.091-6.52-23.611,0l-94.445,94.445c-6.52,6.52-6.52,17.091,0,23.611
			c6.519,6.519,17.091,6.52,23.611,0l94.445-94.445C300.72,167.634,300.72,157.064,294.2,150.544z"/>
	</g>
</g>
<g>
	<g>
		<path d="M341.423,197.766c-6.519-6.52-17.091-6.52-23.611,0l-94.445,94.445c-6.52,6.52-6.52,17.091,0,23.611
			c6.519,6.52,17.091,6.521,23.611,0l94.445-94.445C347.943,214.856,347.943,204.286,341.423,197.766z"/>
	</g>
</g>
</svg>